<?xml version="1.0" encoding="UTF-8" standalone="no"?>
<!DOCTYPE svg PUBLIC "-//W3C//DTD SVG 1.1//EN" "http://www.w3.org/Graphics/SVG/1.1/DTD/svg11.dtd">
<svg width="100%" height="100%" viewBox="0 0 145 145" version="1.1" xmlns="http://www.w3.org/2000/svg" xmlns:xlink="http://www.w3.org/1999/xlink" xml:space="preserve" xmlns:serif="http://www.serif.com/" style="fill-rule:evenodd;clip-rule:evenodd;stroke-linejoin:round;stroke-miterlimit:2;">
    <g transform="matrix(1,0,0,1,0.006,-0.0003)">
        <g transform="matrix(1,0,0,1,-0.006,0.0003)">
            <circle cx="72.5" cy="72.5" r="72.5" style="fill:rgb(251,249,244);"/>
        </g>
        <g transform="matrix(1,0,0,1,-1763.15,-3043.24)">
            <path d="M1769.96,3145.96C1765.59,3136.66 1763.14,3126.28 1763.14,3115.33C1763.14,3075.54 1795.44,3043.24 1835.23,3043.24C1853.15,3043.24 1869.55,3049.8 1882.17,3060.63C1872.78,3064.91 1862.21,3073.83 1854.76,3082.26C1841.75,3096.97 1829.95,3122.32 1828.83,3133.37C1822.04,3138.07 1796.8,3145.31 1784.48,3144.14C1778.45,3143.57 1773.56,3144.3 1769.96,3145.96ZM1901.4,3086.7C1905.21,3095.48 1907.32,3105.16 1907.32,3115.33C1907.32,3124.13 1905.74,3132.56 1902.85,3140.36C1901.44,3139.35 1899.15,3139.34 1896.16,3141.07C1877.73,3151.71 1862.46,3155.41 1856.45,3154.74C1847.1,3153.71 1846.59,3147.48 1846.51,3138.44C1857.18,3132.85 1877.71,3114.52 1891.1,3101.28C1895.68,3096.75 1899.17,3091.73 1901.4,3086.7ZM1895.61,3154.7C1882.74,3174.39 1860.49,3187.42 1835.23,3187.42C1813.02,3187.42 1793.14,3177.35 1779.91,3161.53C1793.63,3160.65 1812.94,3154.28 1826.78,3148.3C1828.77,3179.21 1856.13,3173.15 1872.97,3166.48C1879.69,3163.83 1887.5,3159.72 1895.61,3154.7Z" style="fill:rgb(32,34,46);"/>
        </g>
    </g>
</svg>
